<svg xmlns="http://www.w3.org/2000/svg" viewBox="0 0 119.86 150"><defs><style>.cls-1{fill:#eaeaea;}</style></defs><g id="Layer_2" data-name="Layer 2"><g id="Layer_1-2" data-name="Layer 1"><path id="Fork" class="cls-1" d="M119.86,22.09A22.09,22.09,0,1,0,87.68,41.74C80.31,60.41,61.21,67.05,36.86,75.49l-8,2.79V43.11a22.09,22.09,0,1,0-13.58,0v63.78a22.09,22.09,0,1,0,13.58,0V92.72c4.18-1.53,8.36-3,12.43-4.39,16.26-5.64,31.63-11,43.26-20.36a50.79,50.79,0,0,0,16.77-24.08A22.09,22.09,0,0,0,119.86,22.09Z"/></g></g></svg>